<svg xmlns="http://www.w3.org/2000/svg" viewBox="0 0 120 120" width="120" height="120" role="img" aria-label="SCDLP shield">
  <defs>
    <linearGradient id="g" x1="0" y1="0" x2="1" y2="1">
      <stop offset="0" stop-color="#5b8cff"/>
      <stop offset="1" stop-color="#2f5bd6"/>
    </linearGradient>
  </defs>
  <path d="M60 6 L104 22 V58 C104 88 84 108 60 116 C36 108 16 88 16 58 V22 Z"
        fill="url(#g)" stroke="#9bb8ff" stroke-width="2"/>
  <path d="M60 16 L94 28 V58 C94 82 78 99 60 106 C42 99 26 82 26 58 V28 Z"
        fill="#0e1730" opacity="0.6"/>
  <!-- three asterisks: a masked secret / password -->
  <g stroke="#ffffff" stroke-width="4.4" stroke-linecap="round">
    <!-- left * -->
    <line x1="38" y1="52" x2="38" y2="72"/>
    <line x1="29.3" y1="67" x2="46.7" y2="57"/>
    <line x1="46.7" y1="67" x2="29.3" y2="57"/>
    <!-- middle * -->
    <line x1="60" y1="52" x2="60" y2="72"/>
    <line x1="51.3" y1="67" x2="68.7" y2="57"/>
    <line x1="68.7" y1="67" x2="51.3" y2="57"/>
    <!-- right * -->
    <line x1="82" y1="52" x2="82" y2="72"/>
    <line x1="73.3" y1="67" x2="90.7" y2="57"/>
    <line x1="90.7" y1="67" x2="73.3" y2="57"/>
  </g>
</svg>
